<?xml version="1.0" encoding="UTF-8" standalone="no"?>
<svg
   width="24"
   height="24"
   viewBox="0 0 24 24"
   version="1.1"
   id="svg1"
   sodipodi:docname="github.svg"
   inkscape:version="1.3-alpha (2a5ddc9d23, 2023-03-29)"
   xmlns:inkscape="http://www.inkscape.org/namespaces/inkscape"
   xmlns:sodipodi="http://sodipodi.sourceforge.net/DTD/sodipodi-0.dtd"
   xmlns="http://www.w3.org/2000/svg"
   xmlns:svg="http://www.w3.org/2000/svg">
  <defs
     id="defs1" />
  <sodipodi:namedview
     id="namedview1"
     pagecolor="#ffffff"
     bordercolor="#000000"
     borderopacity="0.25"
     inkscape:showpageshadow="2"
     inkscape:pageopacity="0.0"
     inkscape:pagecheckerboard="0"
     inkscape:deskcolor="#d1d1d1"
     inkscape:zoom="36.083333"
     inkscape:cx="11.986143"
     inkscape:cy="11.986143"
     inkscape:window-width="1920"
     inkscape:window-height="1051"
     inkscape:window-x="-9"
     inkscape:window-y="-9"
     inkscape:window-maximized="1"
     inkscape:current-layer="svg1" />
  <path
     d="M19 0h-14c-2.761 0-5 2.239-5 5v14c0 2.761 2.239 5 5 5h14c2.762 0 5-2.239 5-5v-14c0-2.761-2.238-5-5-5zm-4.466 19.59c-.405.078-.534-.171-.534-.384v-2.195c0-.747-.262-1.233-.55-1.481 1.782-.198 3.654-.875 3.654-3.947 0-.874-.312-1.588-.823-2.147.082-.202.356-1.016-.079-2.117 0 0-.671-.215-2.198.82-.64-.18-1.324-.267-2.004-.271-.68.003-1.364.091-2.003.269-1.528-1.035-2.2-.82-2.2-.82-.434 1.102-.16 1.915-.077 2.118-.512.56-.824 1.273-.824 2.147 0 3.064 1.867 3.751 3.645 3.954-.229.2-.436.552-.508 1.07-.457.204-1.614.557-2.328-.666 0 0-.423-.768-1.227-.825 0 0-.78-.01-.055.487 0 0 .525.246.889 1.17 0 0 .463 1.428 2.688.944v1.489c0 .211-.129.459-.528.385-3.18-1.057-5.472-4.056-5.472-7.59 0-4.419 3.582-8 8-8s8 3.581 8 8c0 3.533-2.289 6.531-5.466 7.59z"
     id="path1" />
  <path
     style="fill:#ffffff;stroke-width:0.0277136"
     d="M 9.2286374,19.487379 C 8.1797158,19.098317 7.1841933,18.458581 6.3749772,17.65358 3.2352141,14.53017 3.2284866,9.4913108 6.3598987,6.3598987 8.1804369,4.5393604 10.745822,3.7068053 13.268692,4.1177588 c 1.670485,0.2721075 3.172448,1.0422338 4.371882,2.2416676 2.154085,2.1540853 2.894661,5.3114826 1.92208,8.1946586 -0.622378,1.845012 -1.910763,3.404954 -3.62456,4.388521 -0.591455,0.339442 -1.318742,0.637071 -1.55675,0.637071 -0.151375,0 -0.255757,-0.05653 -0.323782,-0.17536 -0.02565,-0.0448 -0.03847,-0.421933 -0.0501,-1.473601 -0.01498,-1.354568 -0.01818,-1.421848 -0.07691,-1.616498 -0.08189,-0.271385 -0.205446,-0.510071 -0.339116,-0.655086 l -0.109807,-0.119127 0.159879,-0.01891 c 0.287678,-0.03403 0.834321,-0.152647 1.10953,-0.240762 0.602383,-0.192867 1.002831,-0.429667 1.393347,-0.823937 0.631167,-0.637234 0.91912,-1.428289 0.960228,-2.637906 0.0132,-0.388529 0.007,-0.543169 -0.0307,-0.768783 -0.09632,-0.576039 -0.348211,-1.1326097 -0.687456,-1.518989 l -0.08596,-0.097898 0.0443,-0.1436611 c 0.156797,-0.5085121 0.137673,-1.1459091 -0.05266,-1.7551818 -0.0665,-0.2128842 -0.07558,-0.2266395 -0.158251,-0.2397827 -0.146662,-0.023317 -0.517143,0.034508 -0.776485,0.1211953 -0.297508,0.099444 -0.751469,0.3227484 -1.1023,0.5422243 L 13.995381,8.1200924 13.801386,8.071289 C 12.731478,7.8021326 11.477813,7.7909726 10.332081,8.0404055 L 9.994417,8.1139172 9.7684592,7.9689714 C 9.4600146,7.7711121 9.0238179,7.5506447 8.7315869,7.4449031 8.4409206,7.3397277 8.0303684,7.2640437 7.8843378,7.2887155 7.7798763,7.3063641 7.7782523,7.3086297 7.7048891,7.5390269 7.5175585,8.1273395 7.4989217,8.7823122 7.6550993,9.2888408 l 0.044197,0.143344 -0.1104748,0.1337923 C 7.2358648,9.9934304 7.0232539,10.46859 6.9267761,11.045569 c -0.088728,0.530631 -0.025911,1.419278 0.1434867,2.029866 0.355358,1.280873 1.2663071,2.057519 2.7705686,2.362097 0.1860946,0.03768 0.4123686,0.07625 0.5028316,0.0857 l 0.164478,0.01719 -0.0934,0.100457 c -0.126597,0.136171 -0.273664,0.441798 -0.341244,0.709154 -0.03068,0.121388 -0.06618,0.231096 -0.07888,0.243797 -0.053562,0.05356 -0.430478,0.160544 -0.6718955,0.190708 -0.6480474,0.08097 -1.1698468,-0.19355 -1.594049,-0.838633 -0.351541,-0.534587 -0.8088862,-0.835052 -1.2710531,-0.835052 -0.2124878,0 -0.3298788,0.05066 -0.3411589,0.147216 -0.011534,0.09873 0.075226,0.197708 0.3294951,0.375878 0.3511051,0.246026 0.5999607,0.56853 0.806949,1.045766 0.2529035,0.583098 0.631353,0.912353 1.2375584,1.07669 0.2668534,0.07234 0.9817643,0.08124 1.2993713,0.01617 l 0.2009238,-0.04116 -1.546e-4,0.750921 c -8.48e-5,0.413007 -0.012537,0.795497 -0.027672,0.849977 -0.07163,0.257854 -0.3173077,0.309735 -0.7342986,0.155067 z"
     id="path2" />
</svg>
